<svg width="194" height="113" viewBox="0 0 194 113" fill="none" xmlns="http://www.w3.org/2000/svg">
<path d="M36.2844 107C55.7715 107 71.5688 95.6016 71.5688 81.5411C71.5688 67.4805 55.7715 56.0822 36.2844 56.0822C16.7974 56.0822 1 67.4805 1 81.5411C1 95.6016 16.7974 107 36.2844 107Z" fill="#C5D9EE" stroke="#F5F5DC" stroke-width="0.5"/>
<path fill-rule="evenodd" clip-rule="evenodd" d="M43.0224 61.9416C38.4858 60.5156 33.7538 59.7739 29.1325 59.7645C29.1906 59.8056 29.247 59.8474 29.3054 59.8883C37.4476 65.5976 47.6821 68.9315 57.5049 69.6349C53.4251 66.3047 48.4453 63.6593 43.0224 61.9416V61.9416ZM21.0177 60.4968C18.7558 60.9561 16.613 61.6122 14.6289 62.4533C16.1829 63.8187 17.8556 65.1438 19.6485 66.4182C32.9238 75.8543 50.2914 80.6811 66.0483 80.3379C65.2153 78.5269 64.1274 76.7569 62.8043 75.0605C49.6973 75.0345 35.4703 70.923 24.4764 63.1531C23.2599 62.2933 22.1078 61.4061 21.0177 60.4968ZM9.36646 65.3742C7.76723 66.5207 6.37279 67.8166 5.20785 69.2391C6.7208 70.5061 8.31214 71.7446 9.99082 72.9471C26.5287 84.7933 48.0925 91.0084 67.8953 90.9367C68.0977 89.1999 68.0403 87.4199 67.7241 85.6275C49.7409 85.9998 29.9364 80.4739 14.8198 69.6823C12.8772 68.2955 11.0612 66.8556 9.36646 65.3742Z" fill="#C5D9EE" stroke="#F5F5DC" stroke-width="2"/>
<path d="M75.0013 63.1513C92.6435 63.1513 106.945 50.7744 106.945 35.5068C106.945 20.2392 92.6435 7.8623 75.0013 7.8623C57.3592 7.8623 43.0574 20.2392 43.0574 35.5068C43.0574 50.7744 57.3592 63.1513 75.0013 63.1513Z" fill="#FAC8D3" stroke="#F5F5DC" stroke-width="0.5"/>
<path fill-rule="evenodd" clip-rule="evenodd" d="M65.6239 12.7426C61.783 14.5635 58.2753 17.1105 55.3279 20.2188C55.3923 20.2154 55.4562 20.2136 55.5207 20.2098C64.5212 19.6779 73.2645 15.6716 79.9866 9.65821C75.1627 9.51692 70.2241 10.5775 65.6239 12.7426V12.7426ZM50.6531 26.3275C49.5207 28.2519 48.5958 30.2669 47.8955 32.3356C49.7977 32.4736 51.7487 32.4965 53.742 32.3943C68.5019 31.6379 82.7835 24.1179 92.5823 13.1934C90.8409 12.182 88.9647 11.3784 86.988 10.797C78.6288 19.6138 66.8245 25.6371 54.6309 26.3023C53.2816 26.3759 51.955 26.3822 50.6531 26.3275ZM46.4999 38.4217C46.2489 40.496 46.2282 42.5621 46.4381 44.5834C48.2484 44.6635 50.0896 44.6662 51.9621 44.5785C70.4104 43.7153 88.2911 34.5712 100.846 21.154C99.8136 19.5089 98.5866 18.0014 97.1866 16.6578C85.9904 29.109 69.6903 37.6651 52.8519 38.4861C50.688 38.5916 48.5693 38.5655 46.4999 38.4217V38.4217Z" fill="#FAC8D3" stroke="#F5F5DC" stroke-width="2"/>
<path d="M96.9439 112.108C114.586 112.108 128.888 99.7308 128.888 84.4632C128.888 69.1956 114.586 56.8187 96.9439 56.8187C79.3018 56.8187 65 69.1956 65 84.4632C65 99.7308 79.3018 112.108 96.9439 112.108Z" fill="#F6ECF1" stroke="#F5F5DC" stroke-width="0.5"/>
<path fill-rule="evenodd" clip-rule="evenodd" d="M104.923 65.557C101.199 63.4648 97.1982 62.0879 93.1812 61.5154C93.2253 61.5669 93.2679 61.6189 93.3124 61.6702C99.5116 68.8277 107.897 73.674 116.33 75.629C113.296 71.5355 109.374 68.0722 104.923 65.557V65.557ZM86.0117 61.319C83.9739 61.5399 82.0094 61.988 80.1543 62.6549C81.2949 64.3188 82.545 65.9537 83.9073 67.5483C93.995 79.3558 108.353 86.6826 122.107 88.2291C121.662 86.1716 120.989 84.1275 120.101 82.1341C108.707 80.5112 96.9704 74.3393 88.6094 64.6091C87.6842 63.5323 86.8193 62.4339 86.0117 61.319ZM75.1275 65.1697C73.5599 66.2134 72.1474 67.4435 70.9149 68.8382C72.035 70.3908 73.2277 71.9222 74.5018 73.4253C87.0546 88.233 104.847 97.5698 122.078 99.9019C122.522 98.0506 122.747 96.121 122.748 94.1464C107.053 92.3605 90.6845 83.982 79.2047 70.4865C77.7295 68.7522 76.3726 66.976 75.1275 65.1697V65.1697Z" fill="#F6ECF1" stroke="#F5F5DC" stroke-width="2"/>
<path d="M161.565 107C179.207 107 193.508 95.1132 193.508 80.4501C193.508 65.7869 179.207 53.9001 161.565 53.9001C143.922 53.9001 129.621 65.7869 129.621 80.4501C129.621 95.1132 143.922 107 161.565 107Z" fill="#CEFFE9" stroke="#F5F5DC" stroke-width="0.5"/>
<path fill-rule="evenodd" clip-rule="evenodd" d="M150.771 62.0333C147.343 64.3202 144.346 67.242 141.972 70.6096C142.034 70.5968 142.095 70.5857 142.157 70.5725C150.748 68.7337 158.57 63.6584 164.145 56.9918C159.476 57.5755 154.878 59.309 150.771 62.0333V62.0333ZM138.384 77.0618C137.582 79.0438 136.993 81.0804 136.628 83.1342C138.482 82.9815 140.365 82.7132 142.27 82.3207C156.376 79.4143 169.007 70.2044 176.809 58.4519C174.98 57.7575 173.052 57.2789 171.061 57.0247C164.329 66.5767 153.86 74.0079 142.213 76.4469C140.924 76.7168 139.647 76.9199 138.384 77.0618ZM136.196 89.0777C136.265 91.0701 136.555 93.0204 137.061 94.8943C138.817 94.7008 140.591 94.4297 142.382 94.0688C160.025 90.5136 175.88 79.2381 185.964 64.7267C184.723 63.3297 183.315 62.0912 181.764 61.0329C172.845 74.4319 158.424 84.9184 142.325 88.1944C140.257 88.6154 138.212 88.9058 136.196 89.0777V89.0777Z" fill="#CEFFE9" stroke="#F5F5DC" stroke-width="2"/>
<path d="M134.944 66.5998C152.586 66.5998 166.888 54.2229 166.888 38.9553C166.888 23.6877 152.586 11.3108 134.944 11.3108C117.302 11.3108 103 23.6877 103 38.9553C103 54.2229 117.302 66.5998 134.944 66.5998Z" fill="#DD98E2" stroke="#F5F5DC" stroke-width="0.5"/>
<path fill-rule="evenodd" clip-rule="evenodd" d="M142.819 15.8508C138.685 14.295 134.362 13.5261 130.128 13.5939C130.181 13.64 130.232 13.6869 130.285 13.7328C137.653 20.1323 146.977 23.776 155.965 24.4145C152.28 20.6703 147.76 17.7257 142.819 15.8508V15.8508ZM122.682 14.5705C120.603 15.1349 118.629 15.9227 116.798 16.9195C118.2 18.4567 119.711 19.9457 121.333 21.3745C133.345 31.9544 149.18 37.1865 163.621 36.5256C162.887 34.4659 161.919 32.4576 160.733 30.5374C148.726 30.7305 135.757 26.2642 125.809 17.5535C124.708 16.5896 123.666 15.5933 122.682 14.5705ZM111.93 20.3539C110.447 21.6939 109.149 23.2016 108.059 24.8504C109.425 26.2755 110.863 27.6668 112.381 29.0152C127.344 42.2995 147.001 49.0499 165.145 48.6311C165.358 46.6389 165.334 44.6015 165.072 42.5543C148.591 43.2864 130.535 37.2952 116.858 25.1945C115.1 23.6394 113.459 22.0215 111.93 20.3539V20.3539Z" fill="#DD98E2" stroke="#F5F5DC" stroke-width="2"/>
</svg>
